<?xml version="1.0" encoding="iso-8859-1"?>
<!-- Generator: Adobe Illustrator 19.0.0, SVG Export Plug-In . SVG Version: 6.00 Build 0)  -->
<svg version="1.1" id="Layer_1" xmlns="http://www.w3.org/2000/svg" xmlns:xlink="http://www.w3.org/1999/xlink" x="0px" y="0px"
	 viewBox="0 0 512 512" style="enable-background:new 0 0 512 512;" xml:space="preserve">
<path style="fill:#E7ECED;" d="M256,347.621c42.792,0,79.441,26.301,94.747,63.488c-25.977,21.019-58.961,33.523-94.747,33.523
	s-68.662-12.504-94.639-33.523C176.559,373.922,213.208,347.621,256,347.621z"/>
<path style="fill:#F4661E;" d="M105.095,293.726h301.811c0,47.427-21.881,89.789-56.158,117.383
	c-15.306-37.187-51.955-63.488-94.747-63.488s-79.441,26.301-94.639,63.488C127.084,383.623,105.095,341.261,105.095,293.726z"/>
<path style="fill:#FFD248;" d="M350.747,411.109c34.277-27.594,56.158-69.955,56.158-117.383H105.095
	c0,47.535,21.989,89.896,56.266,117.383c25.977,21.019,58.853,33.523,94.639,33.523S324.77,432.128,350.747,411.109z M256,8.084
	c136.893,0,247.916,111.023,247.916,247.916S392.893,503.916,256,503.916S8.084,392.893,8.084,256S119.107,8.084,256,8.084z"/>
<path d="M256,0C114.841,0,0,114.841,0,256s114.841,256,256,256s256-114.841,256-256S397.159,0,256,0z M256,495.832
	C123.756,495.832,16.168,388.244,16.168,256S123.756,16.168,256,16.168S495.832,123.756,495.832,256S388.244,495.832,256,495.832z"
	/>
<path d="M169.768,150.905c16.344,0,29.642,13.298,29.642,29.642h16.168c0-25.26-20.55-45.811-45.811-45.811
	s-45.811,20.55-45.811,45.811h16.168C140.126,164.203,153.424,150.905,169.768,150.905z"/>
<path d="M342.232,150.905c16.344,0,29.642,13.298,29.642,29.642h16.168c0-25.26-20.55-45.811-45.811-45.811
	s-45.811,20.55-45.811,45.811h16.168C312.589,164.203,325.887,150.905,342.232,150.905z"/>
<path d="M97.011,293.726c0,48.388,21.607,93.467,59.285,123.684c28.553,23.096,63.032,35.305,99.704,35.305
	c36.226,0,71.681-12.545,99.817-35.31c37.604-30.274,59.172-75.353,59.172-123.68v-8.084H97.011V293.726z M171.337,408.616
	c15.686-32.33,48.277-52.911,84.663-52.911c36.344,0,68.972,20.579,84.755,52.913c-24.433,18.05-54.289,27.929-84.755,27.929
	C225.129,436.547,195.989,426.911,171.337,408.616z M398.596,301.811c-2.056,36.876-18.134,71.125-45.099,96.219
	c-19.086-35.857-56.246-58.493-97.497-58.493c-41.297,0-78.423,22.636-97.416,58.495c-27.011-25.046-43.122-59.3-45.181-96.221
	H398.596z"/>
<g>
</g>
<g>
</g>
<g>
</g>
<g>
</g>
<g>
</g>
<g>
</g>
<g>
</g>
<g>
</g>
<g>
</g>
<g>
</g>
<g>
</g>
<g>
</g>
<g>
</g>
<g>
</g>
<g>
</g>
</svg>
